PathFileType	4	(X/Y/Z)	Walk3.trc
DataRate	CameraRate	NumFrames	NumMarkers	Units	OrigDataRate	OrigDataStartFrame	OrigNumFrames
200.000000	200.000000	9	59	mm	200.000000	256	578
Frame#	Times		CLAV		STRN		RASI		RACR1		RUA1		RElbow		RFA1		RWRU		LACR1		LUA1		LFA1		LCAR		RTH1		RTH3		RTH2		LTH3		LLFC		LTB1		LTB3		LTB4		LToe		LTH2		RFHD		LTH4		LFHD		LTB2		RBack		RTH4		LMT1		RCAR		RWRR		C7		RPSI		LMT5		LTH1		T10		LMMAL		RLFC		RTB1		LPSI		LLMAL		RBHD		LElbow		LBHD		RTB2		RTB4		RToe		RElbowM		LWRU		RTB3		LWRR		RMT1		RLMAL		RMMAL		LASI		RMT5		RCAL		LElbowM		LCAL
			X1	Y1	Z1	X2	Y2	Z2	X3	Y3	Z3	X4	Y4	Z4	X5	Y5	Z5	X6	Y6	Z6	X7	Y7	Z7	X8	Y8	Z8	X9	Y9	Z9	X10	Y10	Z10	X11	Y11	Z11	X12	Y12	Z12	X13	Y13	Z13	X14	Y14	Z14	X15	Y15	Z15	X16	Y16	Z16	X17	Y17	Z17	X18	Y18	Z18	X19	Y19	Z19	X20	Y20	Z20	X21	Y21	Z21	X22	Y22	Z22	X23	Y23	Z23	X24	Y24	Z24	X25	Y25	Z25	X26	Y26	Z26	X27	Y27	Z27	X28	Y28	Z28	X29	Y29	Z29	X30	Y30	Z30	X31	Y31	Z31	X32	Y32	Z32	X33	Y33	Z33	X34	Y34	Z34	X35	Y35	Z35	X36	Y36	Z36	X37	Y37	Z37	X38	Y38	Z38	X39	Y39	Z39	X40	Y40	Z40	X41	Y41	Z41	X42	Y42	Z42	X43	Y43	Z43	X44	Y44	Z44	X45	Y45	Z45	X46	Y46	Z46	X47	Y47	Z47	X48	Y48	Z48	X49	Y49	Z49	X50	Y50	Z50	X51	Y51	Z51	X52	Y52	Z52	X53	Y53	Z53	X54	Y54	Z54	X55	Y55	Z55	X56	Y56	Z56	X57	Y57	Z57	X58	Y58	Z58	X59	Y59	Z59

256	1.28	-685.22	1322.6	4.7532	-603.15	1100.8	9.3027	-663.16	927.61	158.88	-732.99	1332.7	180.01	-717.54	1124	244.59	-712.98	1016.5	271.43	-604.3	905.48	256.07	-587.31	793.39	259.63	-755.37	1335.7	-162.27	-808.88	1132.2	-205.43	-825.45	891.93	-238.58	-846.57	731.6	-251.35	-777.82	725.71	189.48	-807.53	544.04	145.46	-726.67	634.2	138.13	-647.82	543.66	-121.75	-616.49	444.79	-104.78	-547.61	368.5	-28.659	-492.14	188.71	-29.125	-517.71	277.53	-32.874	-305.5	96.522	-69.9	-618.27	652.64	-99.988	-628.63	1558.4	51.746	-678.33	626.11	-141.25	-634	1555.6	-21.144	-547.6	269.99	-98.204	-851.96	1292.1	112.18	-793.33	634.9	165.57	-338.12	88.051	-43.198	-528.04	778.15	250.36	-548.12	824.33	205.6	-811.77	1399.5	14.406	-869.87	961.28	70.693	-374.06	53.838	-101.81	-710.25	716.88	-156.85	-841.01	1113.1	10.913	-473.25	88.26	7.0266	-841.95	442.43	126.32	-866.71	317.66	48.008	-866.27	948.45	-43.205	-488.95	65.126	-70.694	-802.44	1534.7	84.875	-847.61	1018.6	-212.05	-805.21	1540.9	-42.011	-934.43	247.56	109.73	-920.32	241.76	40.073	-873.48	23.818	74.767	-740.47	988.1	194.48	-884.69	783.49	-248	-973.07	166.56	31.325	-826.97	769.81	-208.13	-915.16	36.458	35.504	-1062.8	89.52	72.473	-1034.1	99.505	-4.7281	-651.63	917.9	-117.05	-969.17	20.762	115.23	-1113.1	69.196	20.392	-852.68	1005	-142.64	-519.33	21.742	-11.283
257	1.285	-679.08	1321.8	4.0069	-597	1100	8.8838	-657.24	926.45	158.56	-727.1	1331.8	179.21	-711.67	1123.2	243.93	-707.36	1015.7	270.95	-598.8	904.54	255.82	-581.92	792.46	259.49	-749.11	1334.6	-163.1	-803.11	1131.2	-206	-820.64	891	-238.88	-842.39	730.71	-251.43	-772.59	724.86	189.22	-803.11	543.29	145.32	-721.89	633.11	137.85	-640.34	543.82	-121.66	-609.21	444.68	-104.65	-541.22	367.92	-28.261	-487.02	187.83	-28.537	-511.93	276.78	-32.366	-301.08	92.849	-69.329	-611.2	652.83	-99.55	-623.04	1557.8	51.063	-671.01	626.21	-141.15	-628.35	1555	-21.839	-541.58	269.5	-97.764	-845.97	1291.1	111.25	-788.49	634.12	165.4	-333.89	85.08	-42.67	-522.64	777.19	250.29	-542.65	823.3	205.46	-805.76	1398.6	13.493	-863.76	960.49	70.277	-370.33	51.382	-101.39	-703.06	716.9	-156.89	-834.69	1112.2	10.349	-469	87.195	7.5778	-838.14	441.89	126.15	-864	317.22	48.104	-860.05	947.9	-43.665	-484.91	64.427	-70.177	-796.84	1533.7	84.038	-842.25	1017.8	-212.41	-799.52	1539.9	-42.838	-932.38	247.88	109.89	-918.3	241.83	40.257	-873.49	23.833	74.703	-734.66	987.21	193.91	-880.28	782.76	-248.07	-971.75	167.12	31.613	-822.55	768.9	-208.3	-915.11	36.37	35.447	-1062.2	90.902	72.841	-1033.4	100.62	-4.3476	-645.17	916.9	-117.06	-969.14	20.75	115.13	-1112.7	71.132	20.843	-847.24	1004.3	-142.98	-516.16	21.86	-10.821
258	1.29	-672.9	1321	3.2326	-590.81	1099.2	8.43	-651.26	925.3	158.19	-721.17	1331	178.39	-705.82	1122.5	243.25	-701.79	1015	270.44	-593.38	903.62	255.57	-576.67	791.54	259.35	-742.83	1333.6	-163.96	-797.3	1130.3	-206.6	-815.73	890.12	-239.19	-838.06	729.88	-251.52	-767.27	724.05	188.93	-798.58	542.57	145.16	-717	632.06	137.58	-632.78	544.12	-121.59	-601.86	444.71	-104.57	-534.87	367.39	-27.89	-482.18	186.94	-27.976	-506.31	276.05	-31.884	-297.08	88.736	-68.748	-604.05	653.16	-99.162	-617.41	1557.2	50.361	-663.63	626.45	-141.07	-622.67	1554.5	-22.554	-535.69	269.07	-97.358	-839.94	1290.2	110.29	-783.55	633.37	165.2	-330.12	81.77	-42.14	-517.36	776.23	250.24	-537.28	822.28	205.32	-799.72	1397.7	12.553	-857.62	959.75	69.897	-367.12	48.714	-101.04	-695.82	717.06	-156.94	-828.33	1111.3	9.7963	-465.19	86.098	8.0946	-834.15	441.38	125.97	-861.15	316.82	48.209	-853.83	947.45	-44.106	-481.34	63.749	-69.703	-791.21	1532.8	83.176	-836.85	1017	-212.8	-793.79	1539.1	-43.692	-930.2	248.28	110.1	-916.16	241.96	40.48	-873.5	23.848	74.623	-728.91	986.38	193.33	-875.75	782.07	-248.16	-970.34	167.76	31.962	-818.01	768.04	-208.48	-915.07	36.282	35.403	-1061.5	92.418	73.291	-1032.7	101.84	-3.8848	-638.69	915.97	-117.07	-969.11	20.74	115.04	-1112.2	73.246	21.391	-841.76	1003.5	-143.35	-513.56	22.076	-10.421
259	1.295	-666.69	1320.4	2.4323	-584.56	1098.5	7.9409	-645.21	924.17	157.75	-715.19	1330.3	177.54	-699.99	1121.9	242.55	-696.28	1014.4	269.91	-588.06	902.73	255.32	-571.55	790.65	259.22	-736.52	1332.7	-164.84	-791.43	1129.5	-207.22	-810.74	889.3	-239.5	-833.58	729.1	-251.62	-761.88	723.27	188.61	-793.9	541.87	144.99	-712	631.05	137.28	-625.17	544.57	-121.55	-594.45	444.87	-104.53	-528.58	366.91	-27.553	-477.62	186.06	-27.451	-500.85	275.35	-31.436	-293.46	84.28	-68.154	-596.86	653.66	-98.834	-611.76	1556.8	49.641	-656.22	626.84	-141.02	-616.96	1554.1	-23.29	-529.94	268.72	-96.997	-833.88	1289.4	109.3	-778.51	632.64	164.97	-326.76	78.201	-41.604	-512.22	775.27	250.21	-532.03	821.27	205.19	-793.64	1396.9	11.589	-851.45	959.07	69.554	-364.36	45.916	-100.78	-688.57	717.36	-157.02	-821.94	1110.5	9.2587	-461.8	85.002	8.5713	-829.98	440.89	125.77	-858.13	316.47	48.319	-847.61	947.12	-44.525	-478.19	63.116	-69.278	-785.54	1532	82.289	-831.39	1016.2	-213.21	-788.04	1538.3	-44.571	-927.87	248.77	110.34	-913.89	242.17	40.741	-873.52	23.863	74.524	-723.21	985.62	192.72	-871.09	781.42	-248.26	-968.82	168.51	32.373	-813.33	767.25	-208.66	-915.04	36.19	35.372	-1060.6	94.077	73.825	-1031.8	103.2	-3.3364	-632.18	915.13	-117.09	-969.06	20.738	114.97	-1111.6	75.556	22.038	-836.26	1002.8	-143.76	-511.46	22.389	-10.086
260	1.3	-660.44	1319.8	1.6082	-578.26	1097.9	7.4168	-639.1	923.06	157.24	-709.17	1329.7	176.68	-694.19	1121.3	241.82	-690.84	1013.8	269.35	-582.83	901.87	255.07	-566.57	789.78	259.09	-730.18	1331.8	-165.74	-785.53	1128.7	-207.85	-805.65	888.54	-239.83	-828.96	728.38	-251.72	-756.4	722.53	188.26	-789.07	541.19	144.8	-706.88	630.1	136.97	-617.55	545.17	-121.52	-587.01	445.17	-104.56	-522.34	366.51	-27.257	-473.3	185.22	-26.97	-495.54	274.7	-31.029	-290.2	79.593	-67.543	-589.63	654.3	-98.574	-606.09	1556.4	48.903	-648.8	627.36	-140.99	-611.23	1553.7	-24.044	-524.32	268.45	-96.69	-827.77	1288.6	108.29	-773.34	631.93	164.71	-323.76	74.462	-41.059	-507.23	774.32	250.2	-526.89	820.27	205.07	-787.52	1396.2	10.604	-845.25	958.45	69.251	-361.99	43.077	-100.6	-681.33	717.79	-157.12	-815.55	1109.8	8.741	-458.78	83.936	9.0039	-825.61	440.42	125.55	-854.93	316.16	48.43	-841.39	946.89	-44.921	-475.42	62.546	-68.906	-779.85	1531.2	81.378	-825.88	1015.5	-213.64	-782.26	1537.6	-45.474	-925.35	249.35	110.62	-911.46	242.44	41.038	-873.55	23.877	74.407	-717.58	984.94	192.1	-866.3	780.81	-248.37	-967.16	169.36	32.847	-808.53	766.53	-208.84	-915.03	36.093	35.354	-1059.7	95.889	74.447	-1030.9	104.68	-2.7001	-625.65	914.38	-117.11	-968.99	20.75	114.9	-1110.9	78.076	22.788	-830.71	1002.2	-144.18	-509.78	22.789	-9.8203
261	1.305	-654.16	1319.2	0.76296	-571.91	1097.3	6.8584	-632.93	921.99	156.67	-703.09	1329.1	175.81	-688.42	1120.8	241.08	-685.45	1013.3	268.76	-577.71	901.06	254.82	-561.74	788.93	258.96	-723.83	1331	-166.66	-779.57	1128	-208.5	-800.48	887.84	-240.16	-824.19	727.74	-251.83	-750.81	721.82	187.88	-784.07	540.54	144.58	-701.62	629.2	136.63	-609.93	545.92	-121.51	-579.56	445.6	-104.64	-516.17	366.19	-27.011	-469.21	184.43	-26.539	-490.37	274.12	-30.672	-287.26	74.796	-66.913	-582.4	655.1	-98.393	-600.38	1556.1	48.147	-641.41	628.01	-140.99	-605.46	1553.5	-24.817	-518.82	268.27	-96.448	-821.64	1288	107.27	-768.05	631.26	164.42	-321.12	70.648	-40.499	-502.37	773.39	250.21	-521.86	819.29	204.96	-781.36	1395.6	9.6022	-839.03	957.89	68.99	-359.97	40.281	-100.53	-674.12	718.34	-157.24	-809.14	1109.2	8.2482	-456.1	82.922	9.3915	-821	439.98	125.3	-851.52	315.91	48.54	-835.18	946.77	-45.289	-472.98	62.05	-68.586	-774.13	1530.5	80.445	-820.3	1014.9	-214.1	-776.44	1536.9	-46.4	-922.64	250.03	110.93	-908.86	242.8	41.37	-873.6	23.888	74.27	-712.02	984.36	191.46	-861.38	780.25	-248.49	-965.35	170.31	33.384	-803.59	765.87	-209.04	-915.02	35.99	35.346	-1058.6	97.866	75.157	-1029.8	106.31	-1.974	-619.11	913.73	-117.12	-968.9	20.782	114.84	-1110.1	80.823	23.64	-825.13	1001.7	-144.63	-508.45	23.262	-9.6239
262	1.31	-647.85	1318.8	-0.10055	-565.52	1096.9	6.2673	-626.71	920.95	156.03	-696.96	1328.7	174.93	-682.68	1120.3	240.32	-680.12	1012.9	268.14	-572.68	900.29	254.56	-557.05	788.13	258.84	-717.45	1330.3	-167.59	-773.56	1127.3	-209.16	-795.2	887.22	-240.5	-819.27	727.16	-251.95	-745.12	721.16	187.46	-778.89	539.92	144.34	-696.23	628.37	136.24	-602.33	546.79	-121.51	-572.13	446.16	-104.78	-510.08	365.95	-26.824	-465.34	183.69	-26.161	-485.35	273.61	-30.372	-284.63	70.009	-66.258	-575.17	656.04	-98.299	-594.66	1555.9	47.376	-634.05	628.79	-141	-599.67	1553.3	-25.606	-513.46	268.17	-96.274	-815.46	1287.5	106.24	-762.61	630.61	164.1	-318.79	66.849	-39.92	-497.67	772.47	250.24	-516.96	818.34	204.86	-775.16	1395	8.5889	-832.8	957.4	68.774	-358.24	37.609	-100.56	-666.99	719	-157.39	-802.74	1108.7	7.7846	-453.74	81.977	9.7354	-816.15	439.56	125.04	-847.87	315.71	48.65	-828.98	946.77	-45.629	-470.83	61.629	-68.314	-768.38	1529.9	79.491	-814.67	1014.4	-214.56	-770.59	1536.4	-47.347	-919.7	250.82	111.29	-906.05	243.24	41.738	-873.66	23.896	74.113	-706.53	983.88	190.81	-856.33	779.75	-248.61	-963.36	171.38	33.985	-798.52	765.29	-209.23	-915.02	35.879	35.349	-1057.4	100.02	75.954	-1028.6	108.09	-1.1576	-612.56	913.17	-117.13	-968.79	20.843	114.79	-1109	83.812	24.591	-819.5	1001.2	-145.1	-507.4	23.788	-9.4959
263	1.315	-641.51	1318.5	-0.97909	-559.1	1096.5	5.6453	-620.44	919.97	155.31	-690.78	1328.3	174.04	-676.99	1120	239.54	-674.86	1012.5	267.49	-567.75	899.57	254.3	-552.5	787.37	258.71	-711.04	1329.6	-168.53	-767.5	1126.8	-209.83	-789.83	886.67	-240.84	-814.2	726.66	-252.08	-739.3	720.54	187	-773.49	539.31	144.08	-690.68	627.6	135.81	-594.78	547.79	-121.53	-564.73	446.83	-104.99	-504.06	365.77	-26.702	-461.68	183.02	-25.84	-480.46	273.16	-30.134	-282.28	65.339	-65.575	-567.98	657.11	-98.298	-588.91	1555.9	46.588	-626.76	629.67	-141.04	-593.85	1553.3	-26.413	-508.23	268.14	-96.172	-809.24	1287.1	105.22	-757.01	629.99	163.74	-316.75	63.146	-39.32	-493.12	771.59	250.29	-512.19	817.42	204.77	-768.91	1394.6	7.5683	-826.56	956.98	68.604	-356.77	35.123	-100.69	-659.94	719.76	-157.56	-796.34	1108.3	7.3529	-451.66	81.109	10.04	-811.02	439.16	124.76	-843.98	315.57	48.761	-822.79	946.88	-45.937	-468.94	61.281	-68.084	-762.59	1529.3	78.517	-808.98	1013.9	-215.05	-764.71	1535.9	-48.314	-916.52	251.7	111.68	-903.02	243.77	42.141	-873.75	23.899	73.938	-701.09	983.51	190.13	-851.14	779.3	-248.75	-961.16	172.57	34.649	-793.31	764.79	-209.43	-915.02	35.761	35.362	-1055.9	102.35	76.838	-1027.3	110.01	-0.25107	-606.02	912.71	-117.12	-968.64	20.943	114.75	-1107.8	87.055	25.639	-813.82	1000.8	-145.58	-506.59	24.346	-9.4321
264	1.32	-635.14	1318.2	-1.8692	-552.65	1096.2	4.9949	-614.12	919.04	154.52	-684.53	1328.1	173.14	-671.32	1119.7	238.76	-669.66	1012.3	266.81	-562.92	898.91	254.03	-548.11	786.66	258.58	-704.62	1329.1	-169.48	-761.39	1126.3	-210.5	-784.36	886.21	-241.19	-808.97	726.24	-252.21	-733.36	719.96	186.51	-767.88	538.73	143.79	-684.96	626.91	135.34	-587.29	548.89	-121.57	-557.39	447.58	-105.25	-498.12	365.67	-26.65	-458.2	182.41	-25.573	-475.72	272.77	-29.96	-280.18	60.876	-64.864	-560.83	658.3	-98.396	-583.13	1555.9	45.784	-619.54	630.65	-141.11	-588	1553.4	-27.236	-503.17	268.16	-96.136	-802.99	1286.7	104.21	-751.24	629.41	163.36	-314.98	59.608	-38.699	-488.72	770.73	250.36	-507.54	816.54	204.69	-762.62	1394.3	6.5455	-820.32	956.63	68.479	-355.52	32.869	-100.92	-653	720.6	-157.77	-789.96	1108	6.9537	-449.84	80.324	10.31	-805.6	438.79	124.47	-839.81	315.47	48.878	-816.62	947.08	-46.212	-467.27	61.002	-67.889	-756.78	1528.9	77.527	-803.21	1013.5	-215.54	-758.81	1535.5	-49.298	-913.06	252.68	112.11	-899.75	244.38	42.583	-873.86	23.896	73.745	-695.71	983.26	189.42	-845.82	778.93	-248.89	-958.74	173.88	35.379	-787.96	764.38	-209.64	-915.03	35.637	35.386	-1054.3	104.86	77.805	-1025.7	112.1	0.74448	-599.49	912.37	-117.11	-968.45	21.09	114.71	-1106.4	90.564	26.777	-808.08	1000.5	-146.08	-505.96	24.915	-9.4254
